ISO-10303-21;
HEADER;
/* Generated by software containing ST-Developer
 * from STEP Tools, Inc. (www.steptools.com) 
 */

FILE_DESCRIPTION(
/* description */ (''),
/* implementation_level */ '2;1');

FILE_NAME(
/* name */ 'Hackpad_bottom.step',
/* time_stamp */ '2026-08-19T20:44:12+02:00',
/* author */ (''),
/* organization */ (''),
/* preprocessor_version */ 'ST-DEVELOPER v20.1',
/* originating_system */ 'Autodesk Translation Framework v15.8.0.0',
/* authorisation */ '');

FILE_SCHEMA (('AUTOMOTIVE_DESIGN { 1 0 10303 214 3 1 1 }'));
ENDSEC;

DATA;
#10=MECHANICAL_DESIGN_GEOMETRIC_PRESENTATION_REPRESENTATION('',(#13),#673);
#11=SHAPE_REPRESENTATION_RELATIONSHIP('SRR','None',#680,#12);
#12=ADVANCED_BREP_SHAPE_REPRESENTATION('',(#14),#672);
#13=STYLED_ITEM('',(#689),#14);
#14=MANIFOLD_SOLID_BREP('Body1',#413);
#15=FACE_BOUND('',#73,.T.);
#16=FACE_BOUND('',#77,.T.);
#17=FACE_BOUND('',#78,.T.);
#18=FACE_BOUND('',#79,.T.);
#19=FACE_BOUND('',#80,.T.);
#20=FACE_BOUND('',#81,.T.);
#21=FACE_BOUND('',#83,.T.);
#22=FACE_BOUND('',#84,.T.);
#23=FACE_BOUND('',#85,.T.);
#24=FACE_BOUND('',#86,.T.);
#25=CIRCLE('',#436,1.99999999999999);
#26=CIRCLE('',#437,1.99999999999999);
#27=CIRCLE('',#439,2.);
#28=CIRCLE('',#440,2.);
#29=CIRCLE('',#444,2.);
#30=CIRCLE('',#445,2.);
#31=CIRCLE('',#447,2.);
#32=CIRCLE('',#448,2.);
#33=CYLINDRICAL_SURFACE('',#435,1.99999999999999);
#34=CYLINDRICAL_SURFACE('',#438,2.);
#35=CYLINDRICAL_SURFACE('',#443,2.);
#36=CYLINDRICAL_SURFACE('',#446,2.);
#37=FACE_OUTER_BOUND('',#57,.T.);
#38=FACE_OUTER_BOUND('',#58,.T.);
#39=FACE_OUTER_BOUND('',#59,.T.);
#40=FACE_OUTER_BOUND('',#60,.T.);
#41=FACE_OUTER_BOUND('',#61,.T.);
#42=FACE_OUTER_BOUND('',#62,.T.);
#43=FACE_OUTER_BOUND('',#63,.T.);
#44=FACE_OUTER_BOUND('',#64,.T.);
#45=FACE_OUTER_BOUND('',#65,.T.);
#46=FACE_OUTER_BOUND('',#66,.T.);
#47=FACE_OUTER_BOUND('',#67,.T.);
#48=FACE_OUTER_BOUND('',#68,.T.);
#49=FACE_OUTER_BOUND('',#69,.T.);
#50=FACE_OUTER_BOUND('',#70,.T.);
#51=FACE_OUTER_BOUND('',#71,.T.);
#52=FACE_OUTER_BOUND('',#72,.T.);
#53=FACE_OUTER_BOUND('',#74,.T.);
#54=FACE_OUTER_BOUND('',#75,.T.);
#55=FACE_OUTER_BOUND('',#76,.T.);
#56=FACE_OUTER_BOUND('',#82,.T.);
#57=EDGE_LOOP('',(#269,#270,#271,#272,#273,#274));
#58=EDGE_LOOP('',(#275,#276,#277,#278));
#59=EDGE_LOOP('',(#279,#280,#281,#282));
#60=EDGE_LOOP('',(#283,#284,#285,#286,#287,#288));
#61=EDGE_LOOP('',(#289,#290,#291,#292));
#62=EDGE_LOOP('',(#293,#294,#295,#296,#297,#298,#299,#300));
#63=EDGE_LOOP('',(#301,#302,#303,#304));
#64=EDGE_LOOP('',(#305,#306,#307,#308,#309,#310,#311,#312));
#65=EDGE_LOOP('',(#313,#314,#315,#316));
#66=EDGE_LOOP('',(#317,#318,#319,#320));
#67=EDGE_LOOP('',(#321,#322,#323,#324));
#68=EDGE_LOOP('',(#325,#326,#327,#328));
#69=EDGE_LOOP('',(#329,#330,#331,#332));
#70=EDGE_LOOP('',(#333,#334,#335,#336));
#71=EDGE_LOOP('',(#337,#338,#339,#340));
#72=EDGE_LOOP('',(#341,#342,#343,#344));
#73=EDGE_LOOP('',(#345,#346,#347,#348));
#74=EDGE_LOOP('',(#349,#350,#351,#352));
#75=EDGE_LOOP('',(#353,#354,#355,#356));
#76=EDGE_LOOP('',(#357,#358,#359,#360));
#77=EDGE_LOOP('',(#361));
#78=EDGE_LOOP('',(#362));
#79=EDGE_LOOP('',(#363,#364,#365,#366));
#80=EDGE_LOOP('',(#367));
#81=EDGE_LOOP('',(#368));
#82=EDGE_LOOP('',(#369,#370,#371,#372));
#83=EDGE_LOOP('',(#373));
#84=EDGE_LOOP('',(#374));
#85=EDGE_LOOP('',(#375));
#86=EDGE_LOOP('',(#376));
#87=LINE('',#563,#133);
#88=LINE('',#565,#134);
#89=LINE('',#567,#135);
#90=LINE('',#569,#136);
#91=LINE('',#571,#137);
#92=LINE('',#572,#138);
#93=LINE('',#575,#139);
#94=LINE('',#577,#140);
#95=LINE('',#578,#141);
#96=LINE('',#581,#142);
#97=LINE('',#582,#143);
#98=LINE('',#586,#144);
#99=LINE('',#587,#145);
#100=LINE('',#589,#146);
#101=LINE('',#590,#147);
#102=LINE('',#592,#148);
#103=LINE('',#593,#149);
#104=LINE('',#596,#150);
#105=LINE('',#598,#151);
#106=LINE('',#600,#152);
#107=LINE('',#602,#153);
#108=LINE('',#603,#154);
#109=LINE('',#606,#155);
#110=LINE('',#608,#156);
#111=LINE('',#609,#157);
#112=LINE('',#612,#158);
#113=LINE('',#613,#159);
#114=LINE('',#618,#160);
#115=LINE('',#624,#161);
#116=LINE('',#628,#162);
#117=LINE('',#629,#163);
#118=LINE('',#631,#164);
#119=LINE('',#636,#165);
#120=LINE('',#642,#166);
#121=LINE('',#647,#167);
#122=LINE('',#649,#168);
#123=LINE('',#651,#169);
#124=LINE('',#652,#170);
#125=LINE('',#655,#171);
#126=LINE('',#657,#172);
#127=LINE('',#658,#173);
#128=LINE('',#661,#174);
#129=LINE('',#663,#175);
#130=LINE('',#664,#176);
#131=LINE('',#666,#177);
#132=LINE('',#667,#178);
#133=VECTOR('',#459,10.);
#134=VECTOR('',#460,10.);
#135=VECTOR('',#461,10.);
#136=VECTOR('',#462,10.);
#137=VECTOR('',#463,10.);
#138=VECTOR('',#464,10.);
#139=VECTOR('',#467,10.);
#140=VECTOR('',#468,10.);
#141=VECTOR('',#469,10.);
#142=VECTOR('',#472,10.);
#143=VECTOR('',#473,10.);
#144=VECTOR('',#476,10.);
#145=VECTOR('',#477,10.);
#146=VECTOR('',#478,10.);
#147=VECTOR('',#479,10.);
#148=VECTOR('',#482,10.);
#149=VECTOR('',#483,10.);
#150=VECTOR('',#486,10.);
#151=VECTOR('',#487,10.);
#152=VECTOR('',#488,10.);
#153=VECTOR('',#489,10.);
#154=VECTOR('',#490,10.);
#155=VECTOR('',#493,10.);
#156=VECTOR('',#494,10.);
#157=VECTOR('',#495,10.);
#158=VECTOR('',#498,10.);
#159=VECTOR('',#499,10.);
#160=VECTOR('',#504,1.99999999999999);
#161=VECTOR('',#511,2.);
#162=VECTOR('',#516,10.);
#163=VECTOR('',#517,10.);
#164=VECTOR('',#520,10.);
#165=VECTOR('',#525,2.);
#166=VECTOR('',#532,2.);
#167=VECTOR('',#537,10.);
#168=VECTOR('',#538,10.);
#169=VECTOR('',#539,10.);
#170=VECTOR('',#540,10.);
#171=VECTOR('',#543,10.);
#172=VECTOR('',#544,10.);
#173=VECTOR('',#545,10.);
#174=VECTOR('',#548,10.);
#175=VECTOR('',#549,10.);
#176=VECTOR('',#550,10.);
#177=VECTOR('',#553,10.);
#178=VECTOR('',#554,10.);
#179=VERTEX_POINT('',#561);
#180=VERTEX_POINT('',#562);
#181=VERTEX_POINT('',#564);
#182=VERTEX_POINT('',#566);
#183=VERTEX_POINT('',#568);
#184=VERTEX_POINT('',#570);
#185=VERTEX_POINT('',#574);
#186=VERTEX_POINT('',#576);
#187=VERTEX_POINT('',#580);
#188=VERTEX_POINT('',#584);
#189=VERTEX_POINT('',#585);
#190=VERTEX_POINT('',#588);
#191=VERTEX_POINT('',#595);
#192=VERTEX_POINT('',#597);
#193=VERTEX_POINT('',#599);
#194=VERTEX_POINT('',#601);
#195=VERTEX_POINT('',#605);
#196=VERTEX_POINT('',#607);
#197=VERTEX_POINT('',#611);
#198=VERTEX_POINT('',#615);
#199=VERTEX_POINT('',#617);
#200=VERTEX_POINT('',#621);
#201=VERTEX_POINT('',#623);
#202=VERTEX_POINT('',#627);
#203=VERTEX_POINT('',#633);
#204=VERTEX_POINT('',#635);
#205=VERTEX_POINT('',#639);
#206=VERTEX_POINT('',#641);
#207=VERTEX_POINT('',#645);
#208=VERTEX_POINT('',#646);
#209=VERTEX_POINT('',#648);
#210=VERTEX_POINT('',#650);
#211=VERTEX_POINT('',#654);
#212=VERTEX_POINT('',#656);
#213=VERTEX_POINT('',#660);
#214=VERTEX_POINT('',#662);
#215=EDGE_CURVE('',#179,#180,#87,.T.);
#216=EDGE_CURVE('',#181,#179,#88,.T.);
#217=EDGE_CURVE('',#182,#181,#89,.T.);
#218=EDGE_CURVE('',#182,#183,#90,.T.);
#219=EDGE_CURVE('',#183,#184,#91,.T.);
#220=EDGE_CURVE('',#180,#184,#92,.T.);
#221=EDGE_CURVE('',#184,#185,#93,.T.);
#222=EDGE_CURVE('',#186,#183,#94,.T.);
#223=EDGE_CURVE('',#185,#186,#95,.T.);
#224=EDGE_CURVE('',#187,#182,#96,.T.);
#225=EDGE_CURVE('',#187,#186,#97,.T.);
#226=EDGE_CURVE('',#188,#189,#98,.T.);
#227=EDGE_CURVE('',#185,#188,#99,.T.);
#228=EDGE_CURVE('',#190,#187,#100,.T.);
#229=EDGE_CURVE('',#190,#189,#101,.T.);
#230=EDGE_CURVE('',#189,#179,#102,.T.);
#231=EDGE_CURVE('',#181,#190,#103,.T.);
#232=EDGE_CURVE('',#191,#188,#104,.T.);
#233=EDGE_CURVE('',#192,#191,#105,.T.);
#234=EDGE_CURVE('',#193,#192,#106,.T.);
#235=EDGE_CURVE('',#194,#193,#107,.T.);
#236=EDGE_CURVE('',#180,#194,#108,.T.);
#237=EDGE_CURVE('',#191,#195,#109,.T.);
#238=EDGE_CURVE('',#196,#195,#110,.T.);
#239=EDGE_CURVE('',#192,#196,#111,.T.);
#240=EDGE_CURVE('',#194,#197,#112,.T.);
#241=EDGE_CURVE('',#195,#197,#113,.T.);
#242=EDGE_CURVE('',#198,#198,#25,.T.);
#243=EDGE_CURVE('',#198,#199,#114,.T.);
#244=EDGE_CURVE('',#199,#199,#26,.T.);
#245=EDGE_CURVE('',#200,#200,#27,.T.);
#246=EDGE_CURVE('',#200,#201,#115,.T.);
#247=EDGE_CURVE('',#201,#201,#28,.T.);
#248=EDGE_CURVE('',#202,#196,#116,.T.);
#249=EDGE_CURVE('',#193,#202,#117,.T.);
#250=EDGE_CURVE('',#197,#202,#118,.T.);
#251=EDGE_CURVE('',#203,#203,#29,.T.);
#252=EDGE_CURVE('',#203,#204,#119,.T.);
#253=EDGE_CURVE('',#204,#204,#30,.T.);
#254=EDGE_CURVE('',#205,#205,#31,.T.);
#255=EDGE_CURVE('',#205,#206,#120,.T.);
#256=EDGE_CURVE('',#206,#206,#32,.T.);
#257=EDGE_CURVE('',#207,#208,#121,.T.);
#258=EDGE_CURVE('',#208,#209,#122,.T.);
#259=EDGE_CURVE('',#210,#209,#123,.T.);
#260=EDGE_CURVE('',#207,#210,#124,.T.);
#261=EDGE_CURVE('',#207,#211,#125,.T.);
#262=EDGE_CURVE('',#212,#210,#126,.T.);
#263=EDGE_CURVE('',#211,#212,#127,.T.);
#264=EDGE_CURVE('',#213,#211,#128,.T.);
#265=EDGE_CURVE('',#214,#212,#129,.T.);
#266=EDGE_CURVE('',#213,#214,#130,.T.);
#267=EDGE_CURVE('',#213,#208,#131,.T.);
#268=EDGE_CURVE('',#209,#214,#132,.T.);
#269=ORIENTED_EDGE('',*,*,#215,.F.);
#270=ORIENTED_EDGE('',*,*,#216,.F.);
#271=ORIENTED_EDGE('',*,*,#217,.F.);
#272=ORIENTED_EDGE('',*,*,#218,.T.);
#273=ORIENTED_EDGE('',*,*,#219,.T.);
#274=ORIENTED_EDGE('',*,*,#220,.F.);
#275=ORIENTED_EDGE('',*,*,#221,.F.);
#276=ORIENTED_EDGE('',*,*,#219,.F.);
#277=ORIENTED_EDGE('',*,*,#222,.F.);
#278=ORIENTED_EDGE('',*,*,#223,.F.);
#279=ORIENTED_EDGE('',*,*,#224,.F.);
#280=ORIENTED_EDGE('',*,*,#225,.T.);
#281=ORIENTED_EDGE('',*,*,#222,.T.);
#282=ORIENTED_EDGE('',*,*,#218,.F.);
#283=ORIENTED_EDGE('',*,*,#226,.F.);
#284=ORIENTED_EDGE('',*,*,#227,.F.);
#285=ORIENTED_EDGE('',*,*,#223,.T.);
#286=ORIENTED_EDGE('',*,*,#225,.F.);
#287=ORIENTED_EDGE('',*,*,#228,.F.);
#288=ORIENTED_EDGE('',*,*,#229,.T.);
#289=ORIENTED_EDGE('',*,*,#230,.F.);
#290=ORIENTED_EDGE('',*,*,#229,.F.);
#291=ORIENTED_EDGE('',*,*,#231,.F.);
#292=ORIENTED_EDGE('',*,*,#216,.T.);
#293=ORIENTED_EDGE('',*,*,#220,.T.);
#294=ORIENTED_EDGE('',*,*,#221,.T.);
#295=ORIENTED_EDGE('',*,*,#227,.T.);
#296=ORIENTED_EDGE('',*,*,#232,.F.);
#297=ORIENTED_EDGE('',*,*,#233,.F.);
#298=ORIENTED_EDGE('',*,*,#234,.F.);
#299=ORIENTED_EDGE('',*,*,#235,.F.);
#300=ORIENTED_EDGE('',*,*,#236,.F.);
#301=ORIENTED_EDGE('',*,*,#233,.T.);
#302=ORIENTED_EDGE('',*,*,#237,.T.);
#303=ORIENTED_EDGE('',*,*,#238,.F.);
#304=ORIENTED_EDGE('',*,*,#239,.F.);
#305=ORIENTED_EDGE('',*,*,#215,.T.);
#306=ORIENTED_EDGE('',*,*,#236,.T.);
#307=ORIENTED_EDGE('',*,*,#240,.T.);
#308=ORIENTED_EDGE('',*,*,#241,.F.);
#309=ORIENTED_EDGE('',*,*,#237,.F.);
#310=ORIENTED_EDGE('',*,*,#232,.T.);
#311=ORIENTED_EDGE('',*,*,#226,.T.);
#312=ORIENTED_EDGE('',*,*,#230,.T.);
#313=ORIENTED_EDGE('',*,*,#242,.F.);
#314=ORIENTED_EDGE('',*,*,#243,.T.);
#315=ORIENTED_EDGE('',*,*,#244,.T.);
#316=ORIENTED_EDGE('',*,*,#243,.F.);
#317=ORIENTED_EDGE('',*,*,#245,.F.);
#318=ORIENTED_EDGE('',*,*,#246,.T.);
#319=ORIENTED_EDGE('',*,*,#247,.T.);
#320=ORIENTED_EDGE('',*,*,#246,.F.);
#321=ORIENTED_EDGE('',*,*,#234,.T.);
#322=ORIENTED_EDGE('',*,*,#239,.T.);
#323=ORIENTED_EDGE('',*,*,#248,.F.);
#324=ORIENTED_EDGE('',*,*,#249,.F.);
#325=ORIENTED_EDGE('',*,*,#235,.T.);
#326=ORIENTED_EDGE('',*,*,#249,.T.);
#327=ORIENTED_EDGE('',*,*,#250,.F.);
#328=ORIENTED_EDGE('',*,*,#240,.F.);
#329=ORIENTED_EDGE('',*,*,#251,.F.);
#330=ORIENTED_EDGE('',*,*,#252,.T.);
#331=ORIENTED_EDGE('',*,*,#253,.T.);
#332=ORIENTED_EDGE('',*,*,#252,.F.);
#333=ORIENTED_EDGE('',*,*,#254,.F.);
#334=ORIENTED_EDGE('',*,*,#255,.T.);
#335=ORIENTED_EDGE('',*,*,#256,.T.);
#336=ORIENTED_EDGE('',*,*,#255,.F.);
#337=ORIENTED_EDGE('',*,*,#257,.T.);
#338=ORIENTED_EDGE('',*,*,#258,.T.);
#339=ORIENTED_EDGE('',*,*,#259,.F.);
#340=ORIENTED_EDGE('',*,*,#260,.F.);
#341=ORIENTED_EDGE('',*,*,#261,.F.);
#342=ORIENTED_EDGE('',*,*,#260,.T.);
#343=ORIENTED_EDGE('',*,*,#262,.F.);
#344=ORIENTED_EDGE('',*,*,#263,.F.);
#345=ORIENTED_EDGE('',*,*,#217,.T.);
#346=ORIENTED_EDGE('',*,*,#231,.T.);
#347=ORIENTED_EDGE('',*,*,#228,.T.);
#348=ORIENTED_EDGE('',*,*,#224,.T.);
#349=ORIENTED_EDGE('',*,*,#264,.T.);
#350=ORIENTED_EDGE('',*,*,#263,.T.);
#351=ORIENTED_EDGE('',*,*,#265,.F.);
#352=ORIENTED_EDGE('',*,*,#266,.F.);
#353=ORIENTED_EDGE('',*,*,#267,.F.);
#354=ORIENTED_EDGE('',*,*,#266,.T.);
#355=ORIENTED_EDGE('',*,*,#268,.F.);
#356=ORIENTED_EDGE('',*,*,#258,.F.);
#357=ORIENTED_EDGE('',*,*,#268,.T.);
#358=ORIENTED_EDGE('',*,*,#265,.T.);
#359=ORIENTED_EDGE('',*,*,#262,.T.);
#360=ORIENTED_EDGE('',*,*,#259,.T.);
#361=ORIENTED_EDGE('',*,*,#254,.T.);
#362=ORIENTED_EDGE('',*,*,#251,.T.);
#363=ORIENTED_EDGE('',*,*,#238,.T.);
#364=ORIENTED_EDGE('',*,*,#241,.T.);
#365=ORIENTED_EDGE('',*,*,#250,.T.);
#366=ORIENTED_EDGE('',*,*,#248,.T.);
#367=ORIENTED_EDGE('',*,*,#245,.T.);
#368=ORIENTED_EDGE('',*,*,#242,.T.);
#369=ORIENTED_EDGE('',*,*,#267,.T.);
#370=ORIENTED_EDGE('',*,*,#257,.F.);
#371=ORIENTED_EDGE('',*,*,#261,.T.);
#372=ORIENTED_EDGE('',*,*,#264,.F.);
#373=ORIENTED_EDGE('',*,*,#256,.F.);
#374=ORIENTED_EDGE('',*,*,#253,.F.);
#375=ORIENTED_EDGE('',*,*,#247,.F.);
#376=ORIENTED_EDGE('',*,*,#244,.F.);
#377=PLANE('',#427);
#378=PLANE('',#428);
#379=PLANE('',#429);
#380=PLANE('',#430);
#381=PLANE('',#431);
#382=PLANE('',#432);
#383=PLANE('',#433);
#384=PLANE('',#434);
#385=PLANE('',#441);
#386=PLANE('',#442);
#387=PLANE('',#449);
#388=PLANE('',#450);
#389=PLANE('',#451);
#390=PLANE('',#452);
#391=PLANE('',#453);
#392=PLANE('',#454);
#393=ADVANCED_FACE('',(#37),#377,.F.);
#394=ADVANCED_FACE('',(#38),#378,.F.);
#395=ADVANCED_FACE('',(#39),#379,.F.);
#396=ADVANCED_FACE('',(#40),#380,.F.);
#397=ADVANCED_FACE('',(#41),#381,.F.);
#398=ADVANCED_FACE('',(#42),#382,.T.);
#399=ADVANCED_FACE('',(#43),#383,.T.);
#400=ADVANCED_FACE('',(#44),#384,.T.);
#401=ADVANCED_FACE('',(#45),#33,.F.);
#402=ADVANCED_FACE('',(#46),#34,.F.);
#403=ADVANCED_FACE('',(#47),#385,.T.);
#404=ADVANCED_FACE('',(#48),#386,.T.);
#405=ADVANCED_FACE('',(#49),#35,.F.);
#406=ADVANCED_FACE('',(#50),#36,.F.);
#407=ADVANCED_FACE('',(#51),#387,.T.);
#408=ADVANCED_FACE('',(#52,#15),#388,.T.);
#409=ADVANCED_FACE('',(#53),#389,.T.);
#410=ADVANCED_FACE('',(#54),#390,.T.);
#411=ADVANCED_FACE('',(#55,#16,#17,#18,#19,#20),#391,.T.);
#412=ADVANCED_FACE('',(#56,#21,#22,#23,#24),#392,.F.);
#413=CLOSED_SHELL('',(#393,#394,#395,#396,#397,#398,#399,#400,#401,#402,
#403,#404,#405,#406,#407,#408,#409,#410,#411,#412));
#414=DERIVED_UNIT_ELEMENT(#416,1.);
#415=DERIVED_UNIT_ELEMENT(#675,-3.);
#416=(
MASS_UNIT()
NAMED_UNIT(*)
SI_UNIT(.KILO.,.GRAM.)
);
#417=DERIVED_UNIT((#414,#415));
#418=MEASURE_REPRESENTATION_ITEM('density measure',
POSITIVE_RATIO_MEASURE(7850.),#417);
#419=PROPERTY_DEFINITION_REPRESENTATION(#424,#421);
#420=PROPERTY_DEFINITION_REPRESENTATION(#425,#422);
#421=REPRESENTATION('material name',(#423),#672);
#422=REPRESENTATION('density',(#418),#672);
#423=DESCRIPTIVE_REPRESENTATION_ITEM('Steel','Steel');
#424=PROPERTY_DEFINITION('material property','material name',#682);
#425=PROPERTY_DEFINITION('material property','density of part',#682);
#426=AXIS2_PLACEMENT_3D('',#559,#455,#456);
#427=AXIS2_PLACEMENT_3D('',#560,#457,#458);
#428=AXIS2_PLACEMENT_3D('',#573,#465,#466);
#429=AXIS2_PLACEMENT_3D('',#579,#470,#471);
#430=AXIS2_PLACEMENT_3D('',#583,#474,#475);
#431=AXIS2_PLACEMENT_3D('',#591,#480,#481);
#432=AXIS2_PLACEMENT_3D('',#594,#484,#485);
#433=AXIS2_PLACEMENT_3D('',#604,#491,#492);
#434=AXIS2_PLACEMENT_3D('',#610,#496,#497);
#435=AXIS2_PLACEMENT_3D('',#614,#500,#501);
#436=AXIS2_PLACEMENT_3D('',#616,#502,#503);
#437=AXIS2_PLACEMENT_3D('',#619,#505,#506);
#438=AXIS2_PLACEMENT_3D('',#620,#507,#508);
#439=AXIS2_PLACEMENT_3D('',#622,#509,#510);
#440=AXIS2_PLACEMENT_3D('',#625,#512,#513);
#441=AXIS2_PLACEMENT_3D('',#626,#514,#515);
#442=AXIS2_PLACEMENT_3D('',#630,#518,#519);
#443=AXIS2_PLACEMENT_3D('',#632,#521,#522);
#444=AXIS2_PLACEMENT_3D('',#634,#523,#524);
#445=AXIS2_PLACEMENT_3D('',#637,#526,#527);
#446=AXIS2_PLACEMENT_3D('',#638,#528,#529);
#447=AXIS2_PLACEMENT_3D('',#640,#530,#531);
#448=AXIS2_PLACEMENT_3D('',#643,#533,#534);
#449=AXIS2_PLACEMENT_3D('',#644,#535,#536);
#450=AXIS2_PLACEMENT_3D('',#653,#541,#542);
#451=AXIS2_PLACEMENT_3D('',#659,#546,#547);
#452=AXIS2_PLACEMENT_3D('',#665,#551,#552);
#453=AXIS2_PLACEMENT_3D('',#668,#555,#556);
#454=AXIS2_PLACEMENT_3D('',#669,#557,#558);
#455=DIRECTION('axis',(0.,0.,1.));
#456=DIRECTION('refdir',(1.,0.,0.));
#457=DIRECTION('center_axis',(0.,1.,0.));
#458=DIRECTION('ref_axis',(0.,0.,1.));
#459=DIRECTION('',(0.,0.,-1.));
#460=DIRECTION('',(1.,0.,0.));
#461=DIRECTION('',(0.,0.,1.));
#462=DIRECTION('',(1.,0.,0.));
#463=DIRECTION('',(0.,0.,1.));
#464=DIRECTION('',(1.,0.,0.));
#465=DIRECTION('center_axis',(1.,0.,0.));
#466=DIRECTION('ref_axis',(0.,0.,-1.));
#467=DIRECTION('',(0.,-1.,0.));
#468=DIRECTION('',(0.,1.,0.));
#469=DIRECTION('',(0.,0.,-1.));
#470=DIRECTION('center_axis',(0.,0.,-1.));
#471=DIRECTION('ref_axis',(0.,1.,0.));
#472=DIRECTION('',(0.,1.,0.));
#473=DIRECTION('',(1.,0.,0.));
#474=DIRECTION('center_axis',(0.,-1.,0.));
#475=DIRECTION('ref_axis',(0.,0.,-1.));
#476=DIRECTION('',(0.,0.,1.));
#477=DIRECTION('',(-1.,0.,0.));
#478=DIRECTION('',(0.,0.,-1.));
#479=DIRECTION('',(1.,0.,0.));
#480=DIRECTION('center_axis',(0.,0.,1.));
#481=DIRECTION('ref_axis',(0.,-1.,0.));
#482=DIRECTION('',(0.,1.,0.));
#483=DIRECTION('',(0.,-1.,0.));
#484=DIRECTION('center_axis',(0.,0.,1.));
#485=DIRECTION('ref_axis',(1.,0.,0.));
#486=DIRECTION('',(0.,1.,0.));
#487=DIRECTION('',(-1.,0.,0.));
#488=DIRECTION('',(0.,-1.,0.));
#489=DIRECTION('',(1.,0.,0.));
#490=DIRECTION('',(0.,1.,0.));
#491=DIRECTION('center_axis',(0.,1.,0.));
#492=DIRECTION('ref_axis',(-1.,0.,0.));
#493=DIRECTION('',(0.,0.,1.));
#494=DIRECTION('',(-1.,0.,0.));
#495=DIRECTION('',(0.,0.,1.));
#496=DIRECTION('center_axis',(1.,0.,0.));
#497=DIRECTION('ref_axis',(0.,1.,0.));
#498=DIRECTION('',(0.,0.,1.));
#499=DIRECTION('',(0.,1.,0.));
#500=DIRECTION('center_axis',(0.,0.,1.));
#501=DIRECTION('ref_axis',(1.,0.,0.));
#502=DIRECTION('center_axis',(0.,0.,-1.));
#503=DIRECTION('ref_axis',(1.,0.,0.));
#504=DIRECTION('',(0.,0.,-1.));
#505=DIRECTION('center_axis',(0.,0.,-1.));
#506=DIRECTION('ref_axis',(1.,0.,0.));
#507=DIRECTION('center_axis',(0.,0.,1.));
#508=DIRECTION('ref_axis',(1.,0.,0.));
#509=DIRECTION('center_axis',(0.,0.,-1.));
#510=DIRECTION('ref_axis',(1.,0.,0.));
#511=DIRECTION('',(0.,0.,-1.));
#512=DIRECTION('center_axis',(0.,0.,-1.));
#513=DIRECTION('ref_axis',(1.,0.,0.));
#514=DIRECTION('center_axis',(-1.,0.,0.));
#515=DIRECTION('ref_axis',(0.,-1.,0.));
#516=DIRECTION('',(0.,-1.,0.));
#517=DIRECTION('',(0.,0.,1.));
#518=DIRECTION('center_axis',(0.,-1.,0.));
#519=DIRECTION('ref_axis',(1.,0.,0.));
#520=DIRECTION('',(1.,0.,0.));
#521=DIRECTION('center_axis',(0.,0.,1.));
#522=DIRECTION('ref_axis',(1.,0.,0.));
#523=DIRECTION('center_axis',(0.,0.,-1.));
#524=DIRECTION('ref_axis',(1.,0.,0.));
#525=DIRECTION('',(0.,0.,-1.));
#526=DIRECTION('center_axis',(0.,0.,-1.));
#527=DIRECTION('ref_axis',(1.,0.,0.));
#528=DIRECTION('center_axis',(0.,0.,1.));
#529=DIRECTION('ref_axis',(1.,0.,0.));
#530=DIRECTION('center_axis',(0.,0.,-1.));
#531=DIRECTION('ref_axis',(1.,0.,0.));
#532=DIRECTION('',(0.,0.,-1.));
#533=DIRECTION('center_axis',(0.,0.,-1.));
#534=DIRECTION('ref_axis',(1.,0.,0.));
#535=DIRECTION('center_axis',(0.,-1.,0.));
#536=DIRECTION('ref_axis',(1.,0.,0.));
#537=DIRECTION('',(1.,0.,0.));
#538=DIRECTION('',(0.,0.,1.));
#539=DIRECTION('',(1.,0.,0.));
#540=DIRECTION('',(0.,0.,1.));
#541=DIRECTION('center_axis',(-1.,0.,0.));
#542=DIRECTION('ref_axis',(0.,-1.,0.));
#543=DIRECTION('',(0.,1.,0.));
#544=DIRECTION('',(0.,-1.,0.));
#545=DIRECTION('',(0.,0.,1.));
#546=DIRECTION('center_axis',(0.,1.,0.));
#547=DIRECTION('ref_axis',(-1.,0.,0.));
#548=DIRECTION('',(-1.,0.,0.));
#549=DIRECTION('',(-1.,0.,0.));
#550=DIRECTION('',(0.,0.,1.));
#551=DIRECTION('center_axis',(1.,0.,0.));
#552=DIRECTION('ref_axis',(0.,1.,0.));
#553=DIRECTION('',(0.,-1.,0.));
#554=DIRECTION('',(0.,1.,0.));
#555=DIRECTION('center_axis',(0.,0.,1.));
#556=DIRECTION('ref_axis',(1.,0.,0.));
#557=DIRECTION('center_axis',(0.,0.,1.));
#558=DIRECTION('ref_axis',(1.,0.,0.));
#559=CARTESIAN_POINT('',(0.,0.,0.));
#560=CARTESIAN_POINT('Origin',(-85.,12.8,2.));
#561=CARTESIAN_POINT('',(-75.,12.8,11.));
#562=CARTESIAN_POINT('',(-75.,12.8,3.));
#563=CARTESIAN_POINT('',(-75.,12.8,1.));
#564=CARTESIAN_POINT('',(-85.,12.8,11.));
#565=CARTESIAN_POINT('',(-85.,12.8,11.));
#566=CARTESIAN_POINT('',(-85.,12.8,2.));
#567=CARTESIAN_POINT('',(-85.,12.8,1.));
#568=CARTESIAN_POINT('',(-57.,12.8,2.));
#569=CARTESIAN_POINT('',(-85.,12.8,2.));
#570=CARTESIAN_POINT('',(-57.,12.8,3.));
#571=CARTESIAN_POINT('',(-57.,12.8,13.));
#572=CARTESIAN_POINT('',(-48.775,12.8,3.));
#573=CARTESIAN_POINT('Origin',(-57.,5.8000004850328,6.5));
#574=CARTESIAN_POINT('',(-57.,-1.1999990299344,3.));
#575=CARTESIAN_POINT('',(-57.,5.80000024251639,3.));
#576=CARTESIAN_POINT('',(-57.,-1.1999990299344,2.));
#577=CARTESIAN_POINT('',(-57.,12.8,2.));
#578=CARTESIAN_POINT('',(-57.,-1.1999990299344,13.));
#579=CARTESIAN_POINT('Origin',(-85.,-1.1999990299344,2.));
#580=CARTESIAN_POINT('',(-85.,-1.1999990299344,2.));
#581=CARTESIAN_POINT('',(-85.,31.9000004850328,2.));
#582=CARTESIAN_POINT('',(-85.,-1.1999990299344,2.));
#583=CARTESIAN_POINT('Origin',(-85.,-1.1999990299344,11.));
#584=CARTESIAN_POINT('',(-75.,-1.1999990299344,3.));
#585=CARTESIAN_POINT('',(-75.,-1.1999990299344,11.));
#586=CARTESIAN_POINT('',(-75.,-1.1999990299344,5.5));
#587=CARTESIAN_POINT('',(-48.775,-1.1999990299344,3.));
#588=CARTESIAN_POINT('',(-85.,-1.1999990299344,11.));
#589=CARTESIAN_POINT('',(-85.,-1.1999990299344,5.5));
#590=CARTESIAN_POINT('',(-85.,-1.1999990299344,11.));
#591=CARTESIAN_POINT('Origin',(-85.,12.8,11.));
#592=CARTESIAN_POINT('',(-75.,-15.2999995149672,11.));
#593=CARTESIAN_POINT('',(-85.,38.9,11.));
#594=CARTESIAN_POINT('Origin',(-12.55,5.79999999999999,3.));
#595=CARTESIAN_POINT('',(-75.,-43.4,3.));
#596=CARTESIAN_POINT('',(-75.,-18.7999995149672,3.));
#597=CARTESIAN_POINT('',(49.9,-43.4,3.));
#598=CARTESIAN_POINT('',(18.675,-43.4,3.));
#599=CARTESIAN_POINT('',(49.9,55.,3.));
#600=CARTESIAN_POINT('',(49.9,30.4,3.));
#601=CARTESIAN_POINT('',(-75.,55.,3.));
#602=CARTESIAN_POINT('',(-43.775,55.,3.));
#603=CARTESIAN_POINT('',(-75.,-18.7999995149672,3.));
#604=CARTESIAN_POINT('Origin',(49.9,-43.4,0.));
#605=CARTESIAN_POINT('',(-75.,-43.4,13.));
#606=CARTESIAN_POINT('',(-75.,-43.4,0.));
#607=CARTESIAN_POINT('',(49.9,-43.4,13.));
#608=CARTESIAN_POINT('',(-75.,-43.4,13.));
#609=CARTESIAN_POINT('',(49.9,-43.4,0.));
#610=CARTESIAN_POINT('Origin',(-75.,-43.3999990299344,0.));
#611=CARTESIAN_POINT('',(-75.,55.,13.));
#612=CARTESIAN_POINT('',(-75.,55.,0.));
#613=CARTESIAN_POINT('',(-75.,-43.3999990299344,13.));
#614=CARTESIAN_POINT('Origin',(-80.,-48.3999990299344,0.));
#615=CARTESIAN_POINT('',(-82.,-48.3999990299344,13.));
#616=CARTESIAN_POINT('Origin',(-80.,-48.3999990299344,13.));
#617=CARTESIAN_POINT('',(-82.,-48.3999990299344,0.));
#618=CARTESIAN_POINT('',(-82.,-48.3999990299344,0.));
#619=CARTESIAN_POINT('Origin',(-80.,-48.3999990299344,0.));
#620=CARTESIAN_POINT('Origin',(54.9,-48.4,0.));
#621=CARTESIAN_POINT('',(52.9,-48.4,13.));
#622=CARTESIAN_POINT('Origin',(54.9,-48.4,13.));
#623=CARTESIAN_POINT('',(52.9,-48.4,0.));
#624=CARTESIAN_POINT('',(52.9,-48.4,0.));
#625=CARTESIAN_POINT('Origin',(54.9,-48.4,0.));
#626=CARTESIAN_POINT('Origin',(49.9,55.,0.));
#627=CARTESIAN_POINT('',(49.9,55.,13.));
#628=CARTESIAN_POINT('',(49.9,-43.4,13.));
#629=CARTESIAN_POINT('',(49.9,55.,0.));
#630=CARTESIAN_POINT('Origin',(-75.,55.,0.));
#631=CARTESIAN_POINT('',(49.9,55.,13.));
#632=CARTESIAN_POINT('Origin',(54.9,60.,0.));
#633=CARTESIAN_POINT('',(52.9,60.,13.));
#634=CARTESIAN_POINT('Origin',(54.9,60.,13.));
#635=CARTESIAN_POINT('',(52.9,60.,0.));
#636=CARTESIAN_POINT('',(52.9,60.,0.));
#637=CARTESIAN_POINT('Origin',(54.9,60.,0.));
#638=CARTESIAN_POINT('Origin',(-80.,60.,0.));
#639=CARTESIAN_POINT('',(-82.,60.,13.));
#640=CARTESIAN_POINT('Origin',(-80.,60.,13.));
#641=CARTESIAN_POINT('',(-82.,60.,0.));
#642=CARTESIAN_POINT('',(-82.,60.,0.));
#643=CARTESIAN_POINT('Origin',(-80.,60.,0.));
#644=CARTESIAN_POINT('Origin',(-85.,-53.3999990299344,0.));
#645=CARTESIAN_POINT('',(-85.,-53.3999990299344,0.));
#646=CARTESIAN_POINT('',(59.9,-53.4,0.));
#647=CARTESIAN_POINT('',(-85.,-53.3999990299344,0.));
#648=CARTESIAN_POINT('',(59.9,-53.4,13.));
#649=CARTESIAN_POINT('',(59.9,-53.4,0.));
#650=CARTESIAN_POINT('',(-85.,-53.3999990299344,13.));
#651=CARTESIAN_POINT('',(-85.,-53.3999990299344,13.));
#652=CARTESIAN_POINT('',(-85.,-53.3999990299344,0.));
#653=CARTESIAN_POINT('Origin',(-85.,65.,0.));
#654=CARTESIAN_POINT('',(-85.,65.,0.));
#655=CARTESIAN_POINT('',(-85.,55.,0.));
#656=CARTESIAN_POINT('',(-85.,65.,13.));
#657=CARTESIAN_POINT('',(-85.,55.,13.));
#658=CARTESIAN_POINT('',(-85.,65.,0.));
#659=CARTESIAN_POINT('Origin',(59.9,65.,0.));
#660=CARTESIAN_POINT('',(59.9,65.,0.));
#661=CARTESIAN_POINT('',(59.9,65.,0.));
#662=CARTESIAN_POINT('',(59.9,65.,13.));
#663=CARTESIAN_POINT('',(59.9,65.,13.));
#664=CARTESIAN_POINT('',(59.9,65.,0.));
#665=CARTESIAN_POINT('Origin',(59.9,-53.4,0.));
#666=CARTESIAN_POINT('',(59.9,-43.4,0.));
#667=CARTESIAN_POINT('',(59.9,-43.4,13.));
#668=CARTESIAN_POINT('Origin',(-12.55,5.79999999999999,13.));
#669=CARTESIAN_POINT('Origin',(-12.55,5.79999999999999,0.));
#670=UNCERTAINTY_MEASURE_WITH_UNIT(LENGTH_MEASURE(0.01),#674,
'DISTANCE_ACCURACY_VALUE',
'Maximum model space distance between geometric entities at asserted c
onnectivities');
#671=UNCERTAINTY_MEASURE_WITH_UNIT(LENGTH_MEASURE(0.01),#674,
'DISTANCE_ACCURACY_VALUE',
'Maximum model space distance between geometric entities at asserted c
onnectivities');
#672=(
GEOMETRIC_REPRESENTATION_CONTEXT(3)
GLOBAL_UNCERTAINTY_ASSIGNED_CONTEXT((#670))
GLOBAL_UNIT_ASSIGNED_CONTEXT((#674,#676,#677))
REPRESENTATION_CONTEXT('','3D')
);
#673=(
GEOMETRIC_REPRESENTATION_CONTEXT(3)
GLOBAL_UNCERTAINTY_ASSIGNED_CONTEXT((#671))
GLOBAL_UNIT_ASSIGNED_CONTEXT((#674,#676,#677))
REPRESENTATION_CONTEXT('','3D')
);
#674=(
LENGTH_UNIT()
NAMED_UNIT(*)
SI_UNIT(.MILLI.,.METRE.)
);
#675=(
LENGTH_UNIT()
NAMED_UNIT(*)
SI_UNIT($,.METRE.)
);
#676=(
NAMED_UNIT(*)
PLANE_ANGLE_UNIT()
SI_UNIT($,.RADIAN.)
);
#677=(
NAMED_UNIT(*)
SI_UNIT($,.STERADIAN.)
SOLID_ANGLE_UNIT()
);
#678=SHAPE_DEFINITION_REPRESENTATION(#679,#680);
#679=PRODUCT_DEFINITION_SHAPE('',$,#682);
#680=SHAPE_REPRESENTATION('',(#426),#672);
#681=PRODUCT_DEFINITION_CONTEXT('part definition',#686,'design');
#682=PRODUCT_DEFINITION('2026-07-10-16-15-18-647','Hackpad_bottom',#683,
#681);
#683=PRODUCT_DEFINITION_FORMATION('',$,#688);
#684=PRODUCT_RELATED_PRODUCT_CATEGORY('Hackpad_bottom','Hackpad_bottom',
(#688));
#685=APPLICATION_PROTOCOL_DEFINITION('international standard',
'automotive_design',2009,#686);
#686=APPLICATION_CONTEXT(
'Core Data for Automotive Mechanical Design Process');
#687=PRODUCT_CONTEXT('part definition',#686,'mechanical');
#688=PRODUCT('2026-07-10-16-15-18-647','Hackpad_bottom',$,(#687));
#689=PRESENTATION_STYLE_ASSIGNMENT((#690));
#690=SURFACE_STYLE_USAGE(.BOTH.,#691);
#691=SURFACE_SIDE_STYLE('',(#692));
#692=SURFACE_STYLE_FILL_AREA(#693);
#693=FILL_AREA_STYLE('Steel - Satin',(#694));
#694=FILL_AREA_STYLE_COLOUR('Steel - Satin',#695);
#695=COLOUR_RGB('Steel - Satin',0.627450980392157,0.627450980392157,0.627450980392157);
ENDSEC;
END-ISO-10303-21;
